# Blender v3.0.0 OBJ File: 'Forklift ExtremeLowPoly.blend'
# www.blender.org
mtllib ForkliftBody.mtl
o Body_Cube.002
v 0.600000 0.080000 -1.896000
v 0.600000 0.200000 0.680000
v -1.232000 1.840000 1.840000
v -1.232000 0.000000 -2.000000
v 0.600000 0.059535 0.693835
v -1.232000 1.840000 -2.000000
v 1.232000 1.840000 1.840000
v 1.232000 0.000000 -2.000000
v 1.232000 1.840000 -2.000000
v -1.098027 2.116586 1.657497
v -1.098027 2.116586 -1.080579
v 1.098876 2.107401 -1.089989
v 1.098876 2.107401 1.668789
v -0.897813 4.283413 1.214681
v -0.816495 4.324344 -0.884993
v 0.896964 4.292600 -0.781412
v 0.896964 4.292600 1.222218
v 0.600000 0.709117 1.909117
v 0.600000 0.798658 1.800011
v 0.600000 0.865193 1.675532
v 0.600000 0.906166 1.540465
v 0.600000 0.920000 1.400000
v 0.600000 0.906166 1.259535
v 0.600000 0.865193 1.124468
v 0.600000 0.798658 0.999990
v 0.600000 0.709117 0.890883
v 0.600000 0.600011 0.801342
v 0.600000 0.475532 0.734807
v 0.600000 0.340465 0.693835
v -0.600000 0.200000 0.680000
v -0.600000 0.059535 0.693835
v -0.600000 0.709117 1.909117
v -0.600000 0.798658 1.800011
v -0.600000 0.865193 1.675532
v 0.600000 0.080000 -0.744000
v -0.600000 0.906166 1.540465
v 0.600000 0.192372 -0.755068
v -0.600000 0.920000 1.400000
v -0.600000 0.906166 1.259535
v 0.600000 0.300426 -0.787846
v -0.600000 0.865193 1.124468
v -0.600000 0.798658 0.999990
v 0.600000 0.400009 -0.841074
v -0.600000 0.709117 0.890883
v -0.600000 0.600011 0.801342
v 0.600000 0.487294 -0.912707
v -0.600000 0.475532 0.734807
v -0.600000 0.340465 0.693835
v 0.600000 0.558927 -0.999992
v -1.232000 0.709117 1.909117
v -1.232000 0.669291 1.941801
v -1.232000 0.906166 1.540465
v 0.600000 0.612155 -1.099575
v -1.232000 0.865193 1.675532
v -1.232000 0.798658 1.800011
v 0.600000 0.644932 -1.207628
v 0.600000 0.000000 2.000000
v -1.232000 0.865193 1.124468
v 0.600000 0.656000 -1.320000
v -1.232000 0.906166 1.259535
v 0.600000 0.644932 -1.432372
v -1.232000 0.600011 0.801342
v -1.232000 0.709117 0.890883
v 0.600000 0.612155 -1.540426
v -1.232000 0.798658 0.999990
v -1.232000 0.920000 1.400000
v 0.600000 0.558927 -1.640009
v -1.232000 0.059535 0.693835
v -1.232000 0.475532 0.734807
v 0.600000 0.487294 -1.727294
v -1.232000 0.200000 0.680000
v -1.232000 0.340465 0.693835
v 0.600000 0.400009 -1.798927
v -1.232000 0.000000 0.711894
v -0.600000 0.000000 0.711894
v -0.600000 0.669291 1.941801
v 0.600000 0.300426 -1.852155
v 1.232000 0.798658 1.800011
v 0.600000 0.192372 -1.884933
v 1.232000 0.669291 1.941801
v 1.232000 0.709117 1.909117
v -0.600000 0.080000 -1.896000
v 1.232000 0.906166 1.540465
v 1.232000 0.906166 1.259535
v 1.232000 0.920000 1.400000
v 1.232000 0.865193 1.675532
v 1.232000 0.798658 0.999990
v 1.232000 0.600011 0.801342
v 1.232000 0.709117 0.890883
v 1.232000 0.200000 0.680000
v 1.232000 0.340465 0.693835
v 1.232000 0.059535 0.693835
v 1.232000 0.000000 0.711894
v 1.232000 0.475532 0.734807
v 1.232000 0.865193 1.124468
v 0.600000 0.669291 1.941801
v -0.600000 0.000000 2.000000
v 0.600000 0.000000 0.711894
v -0.600000 0.080000 -0.744000
v -0.600000 0.192372 -0.755068
v -0.600000 0.300426 -0.787846
v -0.600000 0.400009 -0.841074
v -0.600000 0.487294 -0.912707
v -0.600000 0.558927 -0.999992
v -0.600000 0.612155 -1.099575
v -0.600000 0.644932 -1.207628
v -0.600000 0.656000 -1.320000
v -0.600000 0.644932 -1.432372
v -0.600000 0.612155 -1.540426
v -0.600000 0.558927 -1.640009
v -0.600000 0.487294 -1.727294
v -0.600000 0.400009 -1.798927
v -0.600000 0.300426 -1.852155
v -0.600000 0.192372 -1.884933
v -1.232000 0.644932 -1.207628
v 1.232000 0.300426 -1.852155
v 1.232000 0.080000 -0.744000
v -1.232000 0.612155 -1.099575
v 1.232000 0.192372 -1.884933
v -1.232000 0.656000 -1.320000
v 1.232000 0.192372 -0.755068
v -1.232000 0.558927 -0.999992
v -1.232000 0.644932 -1.432372
v -1.232000 0.558927 -1.640009
v -1.232000 0.400009 -1.798927
v -1.232000 0.487294 -1.727294
v -1.232000 0.080000 -1.896000
v 1.232000 0.080000 -1.896000
v -1.232000 0.192372 -1.884933
v -1.232000 0.300426 -1.852155
v 0.600000 0.000000 -1.888121
v -1.232000 0.612155 -1.540426
v 0.600000 0.000000 -0.751880
v 1.232000 0.300426 -0.787846
v -1.232000 0.000000 -1.888121
v -1.232000 0.000000 -0.751880
v 1.232000 0.400009 -0.841074
v -1.232000 0.080000 -0.744000
v 1.232000 0.487294 -0.912707
v 1.232000 0.558927 -0.999992
v -0.600000 0.000000 -1.888121
v 1.232000 0.612155 -1.099575
v -1.232000 0.192372 -0.755068
v 1.232000 0.644932 -1.207628
v 1.232000 0.656000 -1.320000
v -0.600000 0.000000 -0.751880
v 1.232000 0.644932 -1.432372
v 1.232000 0.612155 -1.540426
v -1.232000 0.300426 -0.787846
v -1.232000 0.400009 -0.841074
v -1.232000 0.487294 -0.912707
v 1.232000 0.558927 -1.640009
v 1.232000 0.487294 -1.727294
v 1.232000 0.000000 -1.888121
v 1.232000 0.000000 -0.751880
v 1.232000 0.400009 -1.798927
v -0.944147 2.942827 -1.167322
v 1.030652 2.845754 1.517898
v -1.030822 2.843922 1.508858
v 1.029770 2.855304 -1.075140
v -1.182258 1.904599 1.824176
v 1.182258 1.904599 -1.917002
v 1.182258 1.904599 1.824176
v -1.182258 1.904599 -1.917002
v 0.935481 2.858905 1.625279
v 0.801555 4.308321 1.329073
v 0.944147 2.942827 -1.167322
v 0.816495 4.324344 -0.884993
v 1.108800 2.000000 -1.200000
v 1.006373 2.091679 1.782071
v 0.946733 2.847632 -1.075140
v 0.947616 2.838082 1.517898
v 0.813927 4.284927 1.222218
v 0.813927 4.284927 -0.781412
v 1.015840 2.099728 -1.089989
v 1.015840 2.099728 1.668789
v -1.029864 2.854289 -1.065933
v -0.897813 4.283413 -0.773875
v 0.887040 4.400000 -0.869532
v 1.028674 2.867171 -1.182783
v -0.944147 2.926119 -1.085567
v -0.816495 4.307636 -0.803237
v 0.816495 4.307636 -0.803237
v 0.944147 2.926119 -1.085567
v -1.028674 2.867171 -1.182783
v -0.887040 4.400000 -0.869532
v -0.935481 2.858905 1.625279
v -0.801555 4.308321 1.329073
v -1.006373 2.091679 1.782071
v -1.108800 2.000000 -1.200000
v -0.816916 2.824158 1.508858
v -0.815958 2.834525 -1.065933
v -0.683907 4.263649 -0.773875
v -0.683907 4.263649 1.214681
v -0.884122 2.096822 1.657497
v -0.884122 2.096822 -1.080579
v 1.028674 2.867171 1.623590
v 0.887040 4.400000 1.310338
v -1.108800 2.000000 1.800806
v 1.108800 2.000000 1.800806
v -1.028674 2.867171 1.623590
v -0.887040 4.400000 1.310338
v 0.935481 2.845155 1.557995
v -0.935481 2.845155 1.557995
v 0.801555 4.294571 1.261790
v -1.006373 2.077928 1.714787
v 1.006373 2.077928 1.714787
v -0.801555 4.294571 1.261790
vt 0.471347 0.001859
vt 0.465936 0.000000
vt 0.625000 0.000000
vt 0.625000 0.250000
vt 0.375000 0.250000
vt 0.375000 0.243008
vt 0.385870 0.243444
vt 0.401138 0.242716
vt 0.415819 0.240627
vt 0.429349 0.237243
vt 0.441208 0.232688
vt 0.450941 0.227137
vt 0.458173 0.220804
vt 0.462627 0.213935
vt 0.464131 0.206802
vt 0.462627 0.199688
vt 0.458173 0.192878
vt 0.450941 0.186644
vt 0.441208 0.181233
vt 0.429349 0.176856
vt 0.415819 0.173680
vt 0.401138 0.171821
vt 0.385870 0.171343
vt 0.375000 0.171992
vt 0.375000 0.080507
vt 0.383089 0.081426
vt 0.402174 0.081788
vt 0.421259 0.080401
vt 0.439610 0.077304
vt 0.456523 0.072607
vt 0.471347 0.066482
vt 0.483513 0.059165
vt 0.492553 0.050943
vt 0.498120 0.042145
vt 0.500000 0.033125
vt 0.498120 0.024247
vt 0.492553 0.015865
vt 0.483513 0.008306
vt 0.625000 0.500000
vt 0.375000 0.500000
vt 0.625000 0.750000
vt 0.465936 0.750000
vt 0.471347 0.748141
vt 0.483513 0.741694
vt 0.492553 0.734135
vt 0.498120 0.725752
vt 0.500000 0.716875
vt 0.498120 0.707855
vt 0.492553 0.699057
vt 0.483513 0.690835
vt 0.471347 0.683518
vt 0.456523 0.677393
vt 0.439610 0.672696
vt 0.421259 0.669599
vt 0.402174 0.668212
vt 0.383089 0.668574
vt 0.375000 0.669493
vt 0.375000 0.578008
vt 0.385870 0.578657
vt 0.401138 0.578179
vt 0.415819 0.576320
vt 0.429349 0.573144
vt 0.441208 0.568767
vt 0.450941 0.563355
vt 0.458173 0.557121
vt 0.462627 0.550312
vt 0.464131 0.543198
vt 0.462627 0.536065
vt 0.458173 0.529196
vt 0.450941 0.522863
vt 0.441208 0.517312
vt 0.429349 0.512757
vt 0.415819 0.509373
vt 0.401138 0.507284
vt 0.385870 0.506556
vt 0.375000 0.506992
vt 0.465936 0.814123
vt 0.625000 1.000000
vt 0.465936 1.000000
vt 0.465936 0.935877
vt 0.375000 0.935877
vt 0.375000 0.814123
vt 0.125000 0.500000
vt 0.310877 0.506993
vt 0.310877 0.578007
vt 0.310877 0.669493
vt 0.310877 0.750000
vt 0.189123 0.750000
vt 0.189123 0.669493
vt 0.125000 0.669493
vt 0.125000 0.578008
vt 0.189123 0.578008
vt 0.189123 0.506992
vt 0.125000 0.506992
vt 0.625000 1.000000
vt 0.625000 0.750000
vt 0.625000 0.750000
vt 0.625000 1.000000
vt 0.625000 0.740690
vt 0.625000 0.509163
vt 0.625000 0.509163
vt 0.625000 0.740690
vt 0.625000 0.500000
vt 0.625000 0.250000
vt 0.625000 0.250000
vt 0.625000 0.500000
vt 0.625000 0.000000
vt 0.625000 0.000000
vt 0.625000 0.500000
vt 0.875000 0.500000
vt 0.875000 0.750000
vt 0.625000 0.750000
vt 0.625000 0.240051
vt 0.625000 0.010109
vt 0.625000 0.010109
vt 0.625000 0.240051
vt 0.625000 0.988619
vt 0.625000 0.989211
vt 0.625000 0.989211
vt 0.625000 0.988619
vt 0.625000 0.489434
vt 0.625000 0.490314
vt 0.625000 0.490314
vt 0.625000 0.489434
vt 1.000000 0.500000
vt 0.968750 0.500000
vt 0.968750 0.938889
vt 1.000000 0.938889
vt 0.954976 0.938889
vt 0.954976 0.500000
vt 0.375000 0.500000
vt 0.375000 0.938889
vt 0.386407 0.938889
vt 0.386407 0.500000
vt 0.343750 0.500000
vt 0.343750 0.938889
vt 0.312500 0.500000
vt 0.312500 0.938889
vt 0.281250 0.500000
vt 0.281250 0.938889
vt 0.250000 0.500000
vt 0.250000 0.938889
vt 0.218750 0.500000
vt 0.218750 0.938889
vt 0.187500 0.500000
vt 0.187500 0.938889
vt 0.156250 0.500000
vt 0.156250 0.938889
vt 0.125000 0.500000
vt 0.125000 0.938889
vt 0.093750 0.500000
vt 0.093750 0.938889
vt 0.062500 0.500000
vt 0.062500 0.938889
vt 0.031250 0.500000
vt 0.031250 0.938889
vt 0.000000 0.500000
vt 0.000000 0.938889
vt 0.550447 0.383337
vt 0.528269 0.341844
vt 0.514612 0.296822
vt 0.510000 0.250000
vt 0.514612 0.203178
vt 0.528269 0.158156
vt 0.550447 0.116663
vt 0.580294 0.080294
vt 0.593570 0.069400
vt 0.816667 0.050000
vt 0.816667 0.479369
vt 0.796822 0.485388
vt 0.750000 0.490000
vt 0.703178 0.485388
vt 0.658156 0.471731
vt 0.616663 0.449553
vt 0.580294 0.419706
vt 0.968750 0.500000
vt 1.000000 0.500000
vt 1.000000 0.938889
vt 0.968750 0.938889
vt 0.954976 0.500000
vt 0.954976 0.938889
vt 0.386407 0.938889
vt 0.375000 0.938889
vt 0.375000 0.500000
vt 0.386407 0.500000
vt 0.343750 0.500000
vt 0.343750 0.938889
vt 0.312500 0.500000
vt 0.312500 0.938889
vt 0.281250 0.500000
vt 0.281250 0.938889
vt 0.250000 0.500000
vt 0.250000 0.938889
vt 0.218750 0.500000
vt 0.218750 0.938889
vt 0.187500 0.500000
vt 0.187500 0.938889
vt 0.156250 0.500000
vt 0.156250 0.938889
vt 0.125000 0.500000
vt 0.125000 0.938889
vt 0.093750 0.500000
vt 0.093750 0.938889
vt 0.062500 0.500000
vt 0.062500 0.938889
vt 0.031250 0.500000
vt 0.031250 0.938889
vt 0.000000 0.500000
vt 0.000000 0.938889
vt 0.593570 0.069400
vt 0.580294 0.080294
vt 0.550447 0.116663
vt 0.528269 0.158156
vt 0.514612 0.203178
vt 0.510000 0.250000
vt 0.514612 0.296822
vt 0.528269 0.341844
vt 0.550447 0.383337
vt 0.580294 0.419706
vt 0.616663 0.449553
vt 0.658156 0.471731
vt 0.703178 0.485388
vt 0.750000 0.490000
vt 0.796822 0.485388
vt 0.816667 0.479369
vt 0.816667 0.050000
vt 0.977753 0.938889
vt 1.000000 0.938889
vt 1.000000 0.500000
vt 0.977752 0.500000
vt 0.500000 0.500000
vt 0.500000 0.938889
vt 0.522248 0.938889
vt 0.522248 0.500000
vt 0.468750 0.500000
vt 0.468750 0.938889
vt 0.437500 0.500000
vt 0.437500 0.938889
vt 0.406250 0.500000
vt 0.406250 0.938889
vt 0.375000 0.500000
vt 0.375000 0.938889
vt 0.406250 0.938889
vt 0.343750 0.500000
vt 0.343750 0.938889
vt 0.312500 0.500000
vt 0.312500 0.938889
vt 0.281250 0.500000
vt 0.281250 0.938889
vt 0.250000 0.500000
vt 0.250000 0.938889
vt 0.218750 0.500000
vt 0.218750 0.938889
vt 0.187500 0.500000
vt 0.187500 0.938889
vt 0.156250 0.500000
vt 0.156250 0.938889
vt 0.125000 0.500000
vt 0.125000 0.938889
vt 0.093750 0.500000
vt 0.093750 0.938889
vt 0.062500 0.500000
vt 0.062500 0.938889
vt 0.031250 0.500000
vt 0.031250 0.938889
vt 0.000000 0.500000
vt 0.000000 0.938889
vt 0.783333 0.486717
vt 0.750000 0.490000
vt 0.703178 0.485388
vt 0.658156 0.471731
vt 0.616663 0.449553
vt 0.580294 0.419706
vt 0.550447 0.383337
vt 0.528269 0.341844
vt 0.514612 0.296822
vt 0.510000 0.250000
vt 0.514612 0.203178
vt 0.528269 0.158156
vt 0.550447 0.116663
vt 0.580294 0.080294
vt 0.616663 0.050447
vt 0.658156 0.028269
vt 0.703178 0.014612
vt 0.750000 0.010000
vt 0.783333 0.013283
vt 0.977752 0.500000
vt 1.000000 0.500000
vt 1.000000 0.938889
vt 0.977753 0.938889
vt 0.522248 0.938889
vt 0.500000 0.938889
vt 0.500000 0.500000
vt 0.522248 0.500000
vt 0.468750 0.500000
vt 0.468750 0.938889
vt 0.437500 0.500000
vt 0.437500 0.938889
vt 0.406250 0.500000
vt 0.406250 0.938889
vt 0.375000 0.500000
vt 0.406250 0.938889
vt 0.375000 0.938889
vt 0.343750 0.500000
vt 0.343750 0.938889
vt 0.312500 0.500000
vt 0.312500 0.938889
vt 0.281250 0.500000
vt 0.281250 0.938889
vt 0.250000 0.500000
vt 0.250000 0.938889
vt 0.218750 0.500000
vt 0.218750 0.938889
vt 0.187500 0.500000
vt 0.187500 0.938889
vt 0.156250 0.500000
vt 0.156250 0.938889
vt 0.125000 0.500000
vt 0.125000 0.938889
vt 0.093750 0.500000
vt 0.093750 0.938889
vt 0.062500 0.500000
vt 0.062500 0.938889
vt 0.031250 0.500000
vt 0.031250 0.938889
vt 0.000000 0.500000
vt 0.000000 0.938889
vt 0.750000 0.010000
vt 0.703178 0.014612
vt 0.658156 0.028269
vt 0.616663 0.050447
vt 0.580294 0.080294
vt 0.550447 0.116663
vt 0.528269 0.158156
vt 0.514612 0.203178
vt 0.510000 0.250000
vt 0.514612 0.296822
vt 0.528269 0.341844
vt 0.550447 0.383337
vt 0.580294 0.419706
vt 0.616663 0.449553
vt 0.658156 0.471731
vt 0.703178 0.485388
vt 0.750000 0.490000
vt 0.783333 0.486717
vt 0.783333 0.013283
vt 0.625000 0.250000
vt 0.625000 0.500000
vt 0.625000 0.761381
vt 0.625000 0.762796
vt 0.625000 0.762796
vt 0.625000 0.761381
vt 0.625000 0.010568
vt 0.625000 0.010568
vt 0.625000 0.509577
vt 0.625000 0.509577
vt 0.625000 0.740264
vt 0.625000 0.738254
vt 0.625000 0.750000
vt 0.625000 0.511746
vt 0.625000 0.740264
vt 0.625000 0.511746
vt 0.625000 0.738254
vt 0.625000 0.260566
vt 0.625000 0.259686
vt 0.625000 0.250000
vt 0.625000 0.259686
vt 0.625000 0.260566
vt 0.625000 0.239604
vt 0.625000 0.237258
vt 0.625000 0.012742
vt 0.625000 0.000000
vt 0.625000 0.000000
vt 0.625000 0.239604
vt 0.625000 0.012742
vt 0.625000 0.237258
vt 0.625000 0.760789
vt 0.625000 0.987204
vt 0.625000 1.000000
vt 0.625000 1.000000
vt 0.625000 0.987204
vt 0.625000 0.760789
vn -1.0000 -0.0000 0.0000
vn 0.0000 0.0000 -1.0000
vn 1.0000 -0.0000 0.0000
vn 0.0000 0.0866 0.9962
vn 0.0000 -1.0000 0.0000
vn 0.0000 0.2379 0.9713
vn -0.0920 0.9958 0.0000
vn 0.0000 0.9913 -0.1319
vn 0.7923 0.6101 0.0000
vn -0.7923 0.6101 0.0000
vn 0.0000 1.0000 0.0000
vn 0.0920 0.9958 0.0000
vn 0.9959 -0.0883 0.0181
vn -0.9959 -0.0883 -0.0181
vn 0.0000 0.0980 0.9952
vn 0.0000 0.2903 0.9569
vn 0.0000 -0.6344 -0.7730
vn 0.0000 -0.7730 -0.6344
vn 0.0000 -0.8819 -0.4714
vn 0.0000 -0.9569 -0.2903
vn 0.0000 -0.9952 -0.0980
vn 0.0000 -0.9952 0.0980
vn 0.0000 -0.9569 0.2903
vn 0.0000 -0.8819 0.4714
vn -0.0000 -0.7730 0.6344
vn -0.0000 -0.6344 0.7730
vn 0.0000 -0.4714 0.8819
vn 0.0000 -0.2903 0.9569
vn 0.0000 -0.0980 0.9952
vn 0.0000 0.0980 -0.9952
vn 0.0000 -0.0980 -0.9952
vn 0.0000 -0.2903 -0.9569
vn 0.0000 -0.4714 -0.8819
vn 0.0000 0.0198 -0.9998
vn -0.9959 -0.0883 0.0181
vn -0.0183 -0.1986 -0.9799
vn 0.0018 -0.0197 0.9998
vn 0.0000 0.7891 -0.6142
vn 0.9958 0.0920 0.0000
vn 0.0183 -0.1986 0.9799
vn 0.0183 -0.1986 -0.9799
vn 0.0920 -0.9958 0.0000
vn -0.0000 0.2002 -0.9798
vn 0.9959 -0.0883 -0.0181
vn 0.0000 0.9798 0.2002
vn 0.0000 -0.9798 -0.2002
vn -0.9958 0.0920 0.0000
vn -0.0018 -0.0197 0.9998
vn -0.0920 -0.9958 0.0000
vn -0.0183 -0.1986 0.9799
vn -0.0000 0.2002 0.9798
vn 0.0000 -0.9797 0.2002
vn 0.0000 0.9797 -0.2002
usemtl Material.003
s off
f 50/1/1 51/2/1 3/3/1 6/4/1 4/5/1 135/6/1 127/7/1 129/8/1 130/9/1 125/10/1 126/11/1 124/12/1 132/13/1 123/14/1 120/15/1 115/16/1 118/17/1 122/18/1 151/19/1 150/20/1 149/21/1 143/22/1 138/23/1 136/24/1 74/25/1 68/26/1 71/27/1 72/28/1 69/29/1 62/30/1 63/31/1 65/32/1 58/33/1 60/34/1 66/35/1 52/36/1 54/37/1 55/38/1
f 4/5/2 6/4/2 9/39/2 8/40/2
f 8/40/3 9/39/3 7/41/3 80/42/3 81/43/3 78/44/3 86/45/3 83/46/3 85/47/3 84/48/3 95/49/3 87/50/3 89/51/3 88/52/3 94/53/3 91/54/3 90/55/3 92/56/3 93/57/3 155/58/3 117/59/3 121/60/3 134/61/3 137/62/3 139/63/3 140/64/3 142/65/3 144/66/3 145/67/3 147/68/3 148/69/3 152/70/3 153/71/3 156/72/3 116/73/3 119/74/3 128/75/3 154/76/3
f 96/77/4 80/42/4 7/41/4 3/78/4 51/79/4 76/80/4 97/81/4 57/82/4
f 4/83/5 8/40/5 154/76/5 131/84/5 133/85/5 155/58/5 93/57/5 98/86/5 57/87/5 97/88/5 75/89/5 74/90/5 136/91/5 146/92/5 141/93/5 135/94/5
f 161/95/6 163/96/6 200/97/6 199/98/6
f 13/99/7 12/100/7 175/101/7 176/102/7
f 162/103/8 164/104/8 190/105/8 169/106/8
f 163/96/9 162/103/9 169/106/9 200/97/9
f 164/104/10 161/107/10 199/108/10 190/105/10
f 179/109/11 186/110/11 202/111/11 198/112/11
f 11/113/12 10/114/12 195/115/12 196/116/12
f 187/117/13 189/118/13 206/119/13 204/120/13
f 168/121/14 167/122/14 184/123/14 183/124/14
f 2/125/15 5/126/15 92/127/15 90/128/15
f 93/129/16 92/127/16 5/126/16 98/130/16
f 18/131/17 81/132/17 80/133/17 96/134/17
f 18/131/18 19/135/18 78/136/18 81/132/18
f 19/135/19 20/137/19 86/138/19 78/136/19
f 20/137/20 21/139/20 83/140/20 86/138/20
f 21/139/21 22/141/21 85/142/21 83/140/21
f 22/141/22 23/143/22 84/144/22 85/142/22
f 23/143/23 24/145/23 95/146/23 84/144/23
f 24/145/24 25/147/24 87/148/24 95/146/24
f 25/147/25 26/149/25 89/150/25 87/148/25
f 26/149/26 27/151/26 88/152/26 89/150/26
f 27/151/27 28/153/27 94/154/27 88/152/27
f 28/153/28 29/155/28 91/156/28 94/154/28
f 29/155/29 2/157/29 90/158/29 91/156/29
f 25/159/3 24/160/3 23/161/3 22/162/3 21/163/3 20/164/3 19/165/3 18/166/3 96/167/3 57/168/3 98/169/3 5/170/3 2/171/3 29/172/3 28/173/3 27/174/3 26/175/3
f 31/176/15 30/177/15 71/178/15 68/179/15
f 75/180/16 31/176/16 68/179/16 74/181/16
f 51/182/17 50/183/17 32/184/17 76/185/17
f 33/186/18 32/184/18 50/183/18 55/187/18
f 34/188/19 33/186/19 55/187/19 54/189/19
f 36/190/20 34/188/20 54/189/20 52/191/20
f 38/192/21 36/190/21 52/191/21 66/193/21
f 39/194/22 38/192/22 66/193/22 60/195/22
f 41/196/23 39/194/23 60/195/23 58/197/23
f 42/198/24 41/196/24 58/197/24 65/199/24
f 44/200/25 42/198/25 65/199/25 63/201/25
f 45/202/26 44/200/26 63/201/26 62/203/26
f 47/204/27 45/202/27 62/203/27 69/205/27
f 48/206/28 47/204/28 69/205/28 72/207/28
f 30/208/29 48/206/29 72/207/29 71/209/29
f 76/210/1 32/211/1 33/212/1 34/213/1 36/214/1 38/215/1 39/216/1 41/217/1 42/218/1 44/219/1 45/220/1 47/221/1 48/222/1 30/223/1 31/224/1 75/225/1 97/226/1
f 154/227/15 128/228/15 1/229/15 131/230/15
f 35/231/30 117/232/30 155/233/30 133/234/30
f 35/231/31 37/235/31 121/236/31 117/232/31
f 37/235/32 40/237/32 134/238/32 121/236/32
f 40/237/33 43/239/33 137/240/33 134/238/33
f 43/239/17 46/241/17 139/242/17 137/243/17
f 46/241/18 49/244/18 140/245/18 139/242/18
f 49/244/19 53/246/19 142/247/19 140/245/19
f 53/246/20 56/248/20 144/249/20 142/247/20
f 56/248/21 59/250/21 145/251/21 144/249/21
f 59/250/22 61/252/22 147/253/22 145/251/22
f 61/252/23 64/254/23 148/255/23 147/253/23
f 64/254/24 67/256/24 152/257/24 148/255/24
f 67/256/25 70/258/25 153/259/25 152/257/25
f 70/258/26 73/260/26 156/261/26 153/259/26
f 73/260/27 77/262/27 116/263/27 156/261/27
f 77/262/28 79/264/28 119/265/28 116/263/28
f 79/264/29 1/266/29 128/267/29 119/265/29
f 131/268/3 1/269/3 79/270/3 77/271/3 73/272/3 70/273/3 67/274/3 64/275/3 61/276/3 59/277/3 56/278/3 53/279/3 49/280/3 46/281/3 43/282/3 40/283/3 37/284/3 35/285/3 133/286/3
f 141/287/15 82/288/15 127/289/15 135/290/15
f 136/291/30 138/292/30 99/293/30 146/294/30
f 100/295/31 99/293/31 138/292/31 143/296/31
f 101/297/32 100/295/32 143/296/32 149/298/32
f 102/299/33 101/297/33 149/298/33 150/300/33
f 103/301/17 102/299/17 150/302/17 151/303/17
f 104/304/18 103/301/18 151/303/18 122/305/18
f 105/306/19 104/304/19 122/305/19 118/307/19
f 106/308/20 105/306/20 118/307/20 115/309/20
f 107/310/21 106/308/21 115/309/21 120/311/21
f 108/312/22 107/310/22 120/311/22 123/313/22
f 109/314/23 108/312/23 123/313/23 132/315/23
f 110/316/24 109/314/24 132/315/24 124/317/24
f 111/318/25 110/316/25 124/317/25 126/319/25
f 112/320/26 111/318/26 126/319/26 125/321/26
f 113/322/27 112/320/27 125/321/27 130/323/27
f 114/324/28 113/322/28 130/323/28 129/325/28
f 82/326/29 114/324/29 129/325/29 127/327/29
f 99/328/1 100/329/1 101/330/1 102/331/1 103/332/1 104/333/1 105/334/1 106/335/1 107/336/1 108/337/1 109/338/1 110/339/1 111/340/1 112/341/1 113/342/1 114/343/1 82/344/1 141/345/1 146/346/1
f 169/106/34 190/105/34 185/347/34 180/348/34
f 165/349/35 166/350/35 205/351/35 203/352/35
f 10/114/36 159/353/36 191/354/36 195/115/36
f 12/100/37 160/355/37 171/356/37 175/101/37
f 6/4/10 3/3/10 161/107/10 164/104/10
f 7/41/9 9/39/9 162/103/9 163/96/9
f 9/39/38 6/4/38 164/104/38 162/103/38
f 3/78/6 7/41/6 163/96/6 161/95/6
f 158/357/39 17/358/39 198/112/39 197/359/39
f 16/360/39 160/355/39 180/348/39 179/109/39
f 17/358/39 16/360/39 179/109/39 198/112/39
f 12/100/39 13/99/39 200/97/39 169/106/39
f 13/99/39 158/357/39 197/359/39 200/97/39
f 160/355/39 12/100/39 169/106/39 180/348/39
f 172/361/39 171/356/39 174/362/39 173/363/39
f 176/102/39 175/101/39 171/356/39 172/361/39
f 160/355/40 16/360/40 174/362/40 171/356/40
f 158/357/41 13/99/41 176/102/41 172/361/41
f 16/360/42 17/358/42 173/363/42 174/362/42
f 17/358/41 158/357/41 172/361/41 173/363/41
f 15/364/43 157/365/43 185/347/43 186/366/43
f 168/121/43 15/364/43 186/366/43 179/109/43
f 167/122/43 168/121/43 179/109/43 180/348/43
f 157/365/43 167/122/43 180/348/43 185/347/43
f 184/123/43 181/367/43 182/368/43 183/124/43
f 157/365/44 15/364/44 182/368/44 181/367/44
f 167/122/45 157/365/45 181/367/45 184/123/45
f 15/364/46 168/121/46 183/124/46 182/368/46
f 177/369/47 178/370/47 186/366/47 185/347/47
f 14/371/47 159/353/47 201/372/47 202/373/47
f 178/370/47 14/371/47 202/373/47 186/366/47
f 10/114/47 11/113/47 190/105/47 199/108/47
f 11/113/47 177/369/47 185/347/47 190/105/47
f 159/353/47 10/114/47 199/108/47 201/372/47
f 192/374/47 191/354/47 194/375/47 193/376/47
f 196/116/47 195/115/47 191/354/47 192/374/47
f 159/353/36 14/371/36 194/375/36 191/354/36
f 177/369/48 11/113/48 196/116/48 192/374/48
f 14/371/49 178/370/49 193/376/49 194/375/49
f 178/370/50 177/369/50 192/374/50 193/376/50
f 166/350/51 165/349/51 197/359/51 198/112/51
f 170/377/51 189/118/51 199/98/51 200/97/51
f 187/117/51 188/378/51 202/379/51 201/380/51
f 188/378/51 166/350/51 198/112/51 202/379/51
f 165/349/51 170/377/51 200/97/51 197/359/51
f 189/118/51 187/117/51 201/380/51 199/98/51
f 204/120/51 203/352/51 205/351/51 208/381/51
f 206/119/51 207/382/51 203/352/51 204/120/51
f 166/350/52 188/378/52 208/381/52 205/351/52
f 189/118/53 170/377/53 207/382/53 206/119/53
f 170/377/35 165/349/35 203/352/35 207/382/35
f 188/378/13 187/117/13 204/120/13 208/381/13
