# Blender v3.0.0 OBJ File: 'Forklift ExtremeLowPoly.blend'
# www.blender.org
mtllib ForkliftRR.mtl
o RearRight_Cylinder.001
v -0.020000 0.000490 -0.479197
v -0.580000 0.000490 -0.278230
v -0.020000 -0.093153 -0.469975
v -0.580000 -0.053947 -0.272869
v -0.020000 -0.183198 -0.442660
v -0.580000 -0.106291 -0.256990
v -0.020000 -0.266183 -0.398303
v -0.580000 -0.154532 -0.231204
v -0.020000 -0.338921 -0.338609
v -0.580000 -0.196815 -0.196504
v -0.020000 -0.398615 -0.265871
v -0.580000 -0.231516 -0.154220
v -0.020000 -0.442972 -0.182886
v -0.580000 -0.257302 -0.105979
v -0.020000 -0.470287 -0.092841
v -0.580000 -0.273181 -0.053634
v -0.020000 -0.479510 0.000802
v -0.580000 -0.278542 0.000802
v -0.020000 -0.470287 0.094446
v -0.580000 -0.273181 0.055239
v -0.020000 -0.442972 0.184490
v -0.580000 -0.257302 0.107583
v -0.020000 -0.398615 0.267476
v -0.580000 -0.231517 0.155824
v -0.020000 -0.338921 0.340214
v -0.580000 -0.196815 0.198108
v -0.020000 -0.266183 0.399908
v -0.580000 -0.154532 0.232809
v -0.020000 -0.183198 0.444264
v -0.580000 -0.106291 0.258595
v -0.020000 -0.093153 0.471579
v -0.580000 -0.053946 0.274473
v -0.020000 0.000490 0.480802
v -0.580000 0.000490 0.279835
v -0.020000 0.094134 0.471579
v -0.580000 0.054927 0.274473
v -0.020000 0.184178 0.444264
v -0.580000 0.107271 0.258595
v -0.020000 0.267164 0.399908
v -0.580000 0.155512 0.232809
v -0.020000 0.339902 0.340214
v -0.580000 0.197796 0.198108
v -0.020000 0.399596 0.267476
v -0.580000 0.232497 0.155825
v -0.020000 0.443952 0.184490
v -0.580000 0.258283 0.107583
v -0.020000 0.471267 0.094446
v -0.580000 0.274161 0.055239
v -0.020000 0.480490 0.000802
v -0.580000 0.279523 0.000802
v -0.020000 0.471267 -0.092841
v -0.580000 0.274161 -0.053634
v -0.020000 0.443952 -0.182886
v -0.580000 0.258282 -0.105979
v -0.020000 0.399596 -0.265871
v -0.580000 0.232497 -0.154220
v -0.020000 0.339902 -0.338609
v -0.580000 0.197796 -0.196504
v -0.020000 0.267164 -0.398303
v -0.580000 0.155512 -0.231204
v -0.020000 0.184178 -0.442660
v -0.580000 0.107271 -0.256990
v -0.020000 0.094134 -0.469975
v -0.580000 0.054927 -0.272869
v -0.620000 -0.093153 -0.469975
v -0.620000 0.000490 -0.479197
v -0.620000 -0.183198 -0.442660
v -0.620000 -0.266183 -0.398303
v -0.620000 -0.338921 -0.338609
v -0.620000 -0.398615 -0.265871
v -0.620000 -0.442972 -0.182886
v -0.620000 -0.470287 -0.092841
v -0.620000 -0.479510 0.000802
v -0.620000 -0.470287 0.094446
v -0.620000 -0.442972 0.184490
v -0.620000 -0.398615 0.267476
v -0.620000 -0.338921 0.340214
v -0.620000 -0.266183 0.399908
v -0.620000 -0.183198 0.444264
v -0.620000 -0.093153 0.471579
v -0.620000 0.000490 0.480802
v -0.620000 0.094134 0.471579
v -0.620000 0.184178 0.444264
v -0.620000 0.267164 0.399908
v -0.620000 0.339902 0.340214
v -0.620000 0.399596 0.267476
v -0.620000 0.443952 0.184490
v -0.620000 0.471267 0.094446
v -0.620000 0.480490 0.000802
v -0.620000 0.471267 -0.092841
v -0.620000 0.443952 -0.182886
v -0.620000 0.399596 -0.265871
v -0.620000 0.339902 -0.338609
v -0.620000 0.267164 -0.398303
v -0.620000 0.184178 -0.442660
v -0.620000 0.094134 -0.469975
v -0.620000 -0.061788 -0.312290
v -0.620000 0.000490 -0.318423
v -0.620000 -0.121672 -0.294124
v -0.620000 -0.176862 -0.264624
v -0.620000 -0.225237 -0.224925
v -0.620000 -0.264936 -0.176550
v -0.620000 -0.294436 -0.121360
v -0.620000 -0.312602 -0.061476
v -0.620000 -0.318736 0.000802
v -0.620000 -0.312602 0.063080
v -0.620000 -0.294436 0.122965
v -0.620000 -0.264936 0.178155
v -0.620000 -0.225237 0.226529
v -0.620000 -0.176862 0.266229
v -0.620000 -0.121672 0.295729
v -0.620000 -0.061788 0.313894
v -0.620000 0.000490 0.320028
v -0.620000 0.062768 0.313894
v -0.620000 0.122653 0.295729
v -0.620000 0.177843 0.266229
v -0.620000 0.226217 0.226529
v -0.620000 0.265917 0.178155
v -0.620000 0.295417 0.122965
v -0.620000 0.313582 0.063080
v -0.620000 0.319716 0.000802
v -0.620000 0.313582 -0.061476
v -0.620000 0.295416 -0.121360
v -0.620000 0.265917 -0.176550
v -0.620000 0.226217 -0.224925
v -0.620000 0.177843 -0.264624
v -0.620000 0.122653 -0.294124
v -0.620000 0.062768 -0.312290
vt 1.000000 0.500000
vt 0.968750 0.500000
vt 0.968750 1.000000
vt 1.000000 1.000000
vt 0.937500 0.500000
vt 0.937500 1.000000
vt 0.906250 0.500000
vt 0.906250 1.000000
vt 0.875000 0.500000
vt 0.875000 1.000000
vt 0.843750 0.500000
vt 0.843750 1.000000
vt 0.812500 0.500000
vt 0.812500 1.000000
vt 0.781250 0.500000
vt 0.781250 1.000000
vt 0.750000 0.500000
vt 0.750000 1.000000
vt 0.718750 0.500000
vt 0.718750 1.000000
vt 0.687500 0.500000
vt 0.687500 1.000000
vt 0.656250 0.500000
vt 0.656250 1.000000
vt 0.625000 0.500000
vt 0.625000 1.000000
vt 0.593750 0.500000
vt 0.593750 1.000000
vt 0.562500 0.500000
vt 0.562500 1.000000
vt 0.531250 0.500000
vt 0.531250 1.000000
vt 0.500000 0.500000
vt 0.500000 1.000000
vt 0.468750 0.500000
vt 0.468750 1.000000
vt 0.437500 0.500000
vt 0.437500 1.000000
vt 0.406250 0.500000
vt 0.406250 1.000000
vt 0.375000 0.500000
vt 0.375000 1.000000
vt 0.343750 0.500000
vt 0.343750 1.000000
vt 0.312500 0.500000
vt 0.312500 1.000000
vt 0.281250 0.500000
vt 0.281250 1.000000
vt 0.250000 0.500000
vt 0.250000 1.000000
vt 0.218750 0.500000
vt 0.218750 1.000000
vt 0.187500 0.500000
vt 0.187500 1.000000
vt 0.156250 0.500000
vt 0.156250 1.000000
vt 0.125000 0.500000
vt 0.125000 1.000000
vt 0.093750 0.500000
vt 0.093750 1.000000
vt 0.062500 0.500000
vt 0.062500 1.000000
vt 0.277218 0.386835
vt 0.303390 0.378896
vt 0.327511 0.366003
vt 0.348653 0.348653
vt 0.366003 0.327511
vt 0.378896 0.303390
vt 0.386835 0.277218
vt 0.389516 0.250000
vt 0.386835 0.222782
vt 0.378896 0.196609
vt 0.366003 0.172489
vt 0.348653 0.151347
vt 0.327511 0.133997
vt 0.303391 0.121104
vt 0.277218 0.113165
vt 0.250000 0.110484
vt 0.222782 0.113165
vt 0.196609 0.121104
vt 0.172489 0.133997
vt 0.151347 0.151347
vt 0.133997 0.172489
vt 0.121104 0.196610
vt 0.113165 0.222782
vt 0.110484 0.250000
vt 0.113165 0.277218
vt 0.121104 0.303391
vt 0.133997 0.327511
vt 0.151347 0.348653
vt 0.172489 0.366003
vt 0.196609 0.378896
vt 0.222782 0.386835
vt 0.250000 0.389516
vt 0.031250 0.500000
vt 0.031250 1.000000
vt 0.000000 0.500000
vt 0.000000 1.000000
vt 0.750000 0.490000
vt 0.703178 0.485388
vt 0.658156 0.471731
vt 0.616663 0.449553
vt 0.580294 0.419706
vt 0.550447 0.383337
vt 0.528269 0.341844
vt 0.514612 0.296822
vt 0.510000 0.250000
vt 0.514612 0.203178
vt 0.528269 0.158156
vt 0.550447 0.116663
vt 0.580294 0.080294
vt 0.616663 0.050447
vt 0.658156 0.028269
vt 0.703178 0.014612
vt 0.750000 0.010000
vt 0.796822 0.014612
vt 0.841844 0.028269
vt 0.883337 0.050447
vt 0.919706 0.080294
vt 0.949553 0.116663
vt 0.971731 0.158156
vt 0.985388 0.203178
vt 0.990000 0.250000
vt 0.985388 0.296822
vt 0.971731 0.341844
vt 0.949553 0.383337
vt 0.919706 0.419706
vt 0.883337 0.449553
vt 0.841844 0.471731
vt 0.796822 0.485388
vt 0.250000 0.409613
vt 0.250000 0.490000
vt 0.296822 0.485388
vt 0.281139 0.406546
vt 0.341844 0.471731
vt 0.311081 0.397463
vt 0.383337 0.449553
vt 0.338676 0.382713
vt 0.419706 0.419706
vt 0.362863 0.362864
vt 0.449553 0.383337
vt 0.382713 0.338676
vt 0.471731 0.341844
vt 0.397463 0.311081
vt 0.485388 0.296822
vt 0.406546 0.281139
vt 0.490000 0.250000
vt 0.409613 0.250000
vt 0.485388 0.203178
vt 0.406546 0.218861
vt 0.471731 0.158156
vt 0.397463 0.188919
vt 0.449553 0.116663
vt 0.382713 0.161324
vt 0.419706 0.080294
vt 0.362863 0.137137
vt 0.383337 0.050447
vt 0.338676 0.117287
vt 0.341844 0.028269
vt 0.311081 0.102537
vt 0.296822 0.014612
vt 0.281139 0.093454
vt 0.250000 0.010000
vt 0.250000 0.090387
vt 0.203178 0.014612
vt 0.218861 0.093454
vt 0.158156 0.028269
vt 0.188919 0.102537
vt 0.116663 0.050447
vt 0.161324 0.117287
vt 0.080294 0.080294
vt 0.137137 0.137137
vt 0.050447 0.116663
vt 0.117287 0.161324
vt 0.028269 0.158156
vt 0.102537 0.188919
vt 0.014612 0.203178
vt 0.093454 0.218861
vt 0.010000 0.250000
vt 0.090387 0.250000
vt 0.014612 0.296822
vt 0.093454 0.281139
vt 0.028269 0.341844
vt 0.102537 0.311081
vt 0.050447 0.383337
vt 0.117287 0.338676
vt 0.080294 0.419706
vt 0.137137 0.362864
vt 0.116663 0.449553
vt 0.161324 0.382713
vt 0.158156 0.471731
vt 0.188919 0.397463
vt 0.203178 0.485388
vt 0.218861 0.406546
vn 0.0000 -0.0980 -0.9952
vn 0.0000 -0.2903 -0.9569
vn 0.0000 -0.4714 -0.8819
vn 0.0000 -0.6344 -0.7730
vn 0.0000 -0.7730 -0.6344
vn 0.0000 -0.8819 -0.4714
vn 0.0000 -0.9569 -0.2903
vn 0.0000 -0.9952 -0.0980
vn 0.0000 -0.9952 0.0980
vn 0.0000 -0.9569 0.2903
vn 0.0000 -0.8819 0.4714
vn 0.0000 -0.7730 0.6344
vn 0.0000 -0.6344 0.7730
vn 0.0000 -0.4714 0.8819
vn 0.0000 -0.2903 0.9569
vn -0.0000 -0.0980 0.9952
vn 0.0000 0.0980 0.9952
vn 0.0000 0.2903 0.9569
vn 0.0000 0.4714 0.8819
vn 0.0000 0.6344 0.7730
vn 0.0000 0.7730 0.6344
vn 0.0000 0.8819 0.4714
vn 0.0000 0.9569 0.2903
vn 0.0000 0.9952 0.0980
vn 0.0000 0.9952 -0.0980
vn 0.0000 0.9569 -0.2903
vn 0.0000 0.8819 -0.4714
vn -0.0000 0.7730 -0.6344
vn -0.0000 0.6344 -0.7730
vn 0.0000 0.4714 -0.8819
vn -1.0000 0.0000 0.0000
vn 0.0000 0.2903 -0.9569
vn 0.0000 0.0980 -0.9952
vn 1.0000 0.0000 0.0000
vn -0.7071 0.0693 0.7037
vn -0.7071 0.2053 0.6767
vn -0.7071 0.3333 0.6236
vn -0.7071 0.4486 0.5466
vn -0.7071 0.5466 0.4486
vn -0.7071 0.6236 0.3333
vn -0.7071 0.6767 0.2053
vn -0.7071 0.7037 0.0693
vn -0.7071 0.7037 -0.0693
vn -0.7071 0.6767 -0.2053
vn -0.7071 0.6236 -0.3333
vn -0.7071 0.5466 -0.4486
vn -0.7071 0.4486 -0.5466
vn -0.7071 0.3333 -0.6236
vn -0.7071 0.2053 -0.6767
vn -0.7071 0.0693 -0.7037
vn -0.7071 -0.0693 -0.7037
vn -0.7071 -0.2053 -0.6767
vn -0.7071 -0.3333 -0.6236
vn -0.7071 -0.4486 -0.5466
vn -0.7071 -0.5466 -0.4486
vn -0.7071 -0.6236 -0.3333
vn -0.7071 -0.6767 -0.2053
vn -0.7071 -0.7037 -0.0693
vn -0.7071 -0.7037 0.0693
vn -0.7071 -0.6767 0.2053
vn -0.7071 -0.6236 0.3333
vn -0.7071 -0.5466 0.4486
vn -0.7071 -0.4486 0.5466
vn -0.7071 -0.3333 0.6236
vn -0.7071 -0.2053 0.6767
vn -0.7071 -0.0693 0.7037
usemtl Material.001
s off
f 1/1/1 3/2/1 65/3/1 66/4/1
f 3/2/2 5/5/2 67/6/2 65/3/2
f 5/5/3 7/7/3 68/8/3 67/6/3
f 7/7/4 9/9/4 69/10/4 68/8/4
f 9/9/5 11/11/5 70/12/5 69/10/5
f 11/11/6 13/13/6 71/14/6 70/12/6
f 13/13/7 15/15/7 72/16/7 71/14/7
f 15/15/8 17/17/8 73/18/8 72/16/8
f 17/17/9 19/19/9 74/20/9 73/18/9
f 19/19/10 21/21/10 75/22/10 74/20/10
f 21/21/11 23/23/11 76/24/11 75/22/11
f 23/23/12 25/25/12 77/26/12 76/24/12
f 25/25/13 27/27/13 78/28/13 77/26/13
f 27/27/14 29/29/14 79/30/14 78/28/14
f 29/29/15 31/31/15 80/32/15 79/30/15
f 31/31/16 33/33/16 81/34/16 80/32/16
f 33/33/17 35/35/17 82/36/17 81/34/17
f 35/35/18 37/37/18 83/38/18 82/36/18
f 37/37/19 39/39/19 84/40/19 83/38/19
f 39/39/20 41/41/20 85/42/20 84/40/20
f 41/41/21 43/43/21 86/44/21 85/42/21
f 43/43/22 45/45/22 87/46/22 86/44/22
f 45/45/23 47/47/23 88/48/23 87/46/23
f 47/47/24 49/49/24 89/50/24 88/48/24
f 49/49/25 51/51/25 90/52/25 89/50/25
f 51/51/26 53/53/26 91/54/26 90/52/26
f 53/53/27 55/55/27 92/56/27 91/54/27
f 55/55/28 57/57/28 93/58/28 92/56/28
f 57/57/29 59/59/29 94/60/29 93/58/29
f 59/59/30 61/61/30 95/62/30 94/60/30
f 4/63/31 6/64/31 8/65/31 10/66/31 12/67/31 14/68/31 16/69/31 18/70/31 20/71/31 22/72/31 24/73/31 26/74/31 28/75/31 30/76/31 32/77/31 34/78/31 36/79/31 38/80/31 40/81/31 42/82/31 44/83/31 46/84/31 48/85/31 50/86/31 52/87/31 54/88/31 56/89/31 58/90/31 60/91/31 62/92/31 64/93/31 2/94/31
f 61/61/32 63/95/32 96/96/32 95/62/32
f 63/95/33 1/97/33 66/98/33 96/96/33
f 1/99/34 63/100/34 61/101/34 59/102/34 57/103/34 55/104/34 53/105/34 51/106/34 49/107/34 47/108/34 45/109/34 43/110/34 41/111/34 39/112/34 37/113/34 35/114/34 33/115/34 31/116/34 29/117/34 27/118/34 25/119/34 23/120/34 21/121/34 19/122/34 17/123/34 15/124/34 13/125/34 11/126/34 9/127/34 7/128/34 5/129/34 3/130/34
f 98/131/31 66/132/31 65/133/31 97/134/31
f 97/134/31 65/133/31 67/135/31 99/136/31
f 99/136/31 67/135/31 68/137/31 100/138/31
f 100/138/31 68/137/31 69/139/31 101/140/31
f 101/140/31 69/139/31 70/141/31 102/142/31
f 102/142/31 70/141/31 71/143/31 103/144/31
f 103/144/31 71/143/31 72/145/31 104/146/31
f 104/146/31 72/145/31 73/147/31 105/148/31
f 105/148/31 73/147/31 74/149/31 106/150/31
f 106/150/31 74/149/31 75/151/31 107/152/31
f 107/152/31 75/151/31 76/153/31 108/154/31
f 108/154/31 76/153/31 77/155/31 109/156/31
f 109/156/31 77/155/31 78/157/31 110/158/31
f 110/158/31 78/157/31 79/159/31 111/160/31
f 111/160/31 79/159/31 80/161/31 112/162/31
f 112/162/31 80/161/31 81/163/31 113/164/31
f 113/164/31 81/163/31 82/165/31 114/166/31
f 114/166/31 82/165/31 83/167/31 115/168/31
f 115/168/31 83/167/31 84/169/31 116/170/31
f 116/170/31 84/169/31 85/171/31 117/172/31
f 117/172/31 85/171/31 86/173/31 118/174/31
f 118/174/31 86/173/31 87/175/31 119/176/31
f 119/176/31 87/175/31 88/177/31 120/178/31
f 120/178/31 88/177/31 89/179/31 121/180/31
f 121/180/31 89/179/31 90/181/31 122/182/31
f 122/182/31 90/181/31 91/183/31 123/184/31
f 123/184/31 91/183/31 92/185/31 124/186/31
f 124/186/31 92/185/31 93/187/31 125/188/31
f 125/188/31 93/187/31 94/189/31 126/190/31
f 126/190/31 94/189/31 95/191/31 127/192/31
f 127/192/31 95/191/31 96/193/31 128/194/31
f 128/194/31 96/193/31 66/132/31 98/131/31
f 2/94/35 98/131/35 97/134/35 4/63/35
f 4/63/36 97/134/36 99/136/36 6/64/36
f 6/64/37 99/136/37 100/138/37 8/65/37
f 8/65/38 100/138/38 101/140/38 10/66/38
f 10/66/39 101/140/39 102/142/39 12/67/39
f 12/67/40 102/142/40 103/144/40 14/68/40
f 14/68/41 103/144/41 104/146/41 16/69/41
f 16/69/42 104/146/42 105/148/42 18/70/42
f 18/70/43 105/148/43 106/150/43 20/71/43
f 20/71/44 106/150/44 107/152/44 22/72/44
f 22/72/45 107/152/45 108/154/45 24/73/45
f 24/73/46 108/154/46 109/156/46 26/74/46
f 26/74/47 109/156/47 110/158/47 28/75/47
f 28/75/48 110/158/48 111/160/48 30/76/48
f 30/76/49 111/160/49 112/162/49 32/77/49
f 32/77/50 112/162/50 113/164/50 34/78/50
f 34/78/51 113/164/51 114/166/51 36/79/51
f 36/79/52 114/166/52 115/168/52 38/80/52
f 38/80/53 115/168/53 116/170/53 40/81/53
f 40/81/54 116/170/54 117/172/54 42/82/54
f 42/82/55 117/172/55 118/174/55 44/83/55
f 44/83/56 118/174/56 119/176/56 46/84/56
f 46/84/57 119/176/57 120/178/57 48/85/57
f 48/85/58 120/178/58 121/180/58 50/86/58
f 50/86/59 121/180/59 122/182/59 52/87/59
f 52/87/60 122/182/60 123/184/60 54/88/60
f 54/88/61 123/184/61 124/186/61 56/89/61
f 56/89/62 124/186/62 125/188/62 58/90/62
f 58/90/63 125/188/63 126/190/63 60/91/63
f 60/91/64 126/190/64 127/192/64 62/92/64
f 62/92/65 127/192/65 128/194/65 64/93/65
f 64/93/66 128/194/66 98/131/66 2/94/66
