# Blender v3.0.0 OBJ File: 'Forklift ExtremeLowPoly.blend'
# www.blender.org
mtllib ForkliftFork.mtl
o Fork_Cube.003
v 0.485854 0.000011 2.216588
v 0.485854 0.136596 2.216588
v 0.485854 0.000011 0.160002
v 0.485854 0.136596 0.160002
v 0.794146 0.000011 2.216588
v 0.794146 0.136596 2.216588
v 0.794146 0.000011 0.160002
v 0.794146 0.136596 0.160002
v 0.532098 0.036472 2.392406
v 0.532098 0.112289 2.392406
v 0.747902 0.112289 2.392406
v 0.747902 0.036472 2.392406
v 1.386146 0.000011 0.160002
v 1.386146 0.136596 0.160002
v 1.309936 0.136596 0.160002
v 1.309936 0.000011 0.160002
v 0.485854 0.000011 0.262832
v 0.794146 0.000011 0.262832
v 0.485854 1.256596 0.160002
v 0.794146 1.256596 0.160002
v 0.485854 0.136596 0.318248
v 0.485854 0.192013 0.262832
v 0.485854 0.136596 0.207415
v 0.485854 0.081179 0.262832
v 0.794146 0.192013 0.262832
v 0.794146 0.136596 0.318248
v 0.794146 0.081179 0.262832
v 0.794146 0.136596 0.207415
v 0.485854 1.203974 0.262832
v 0.485854 1.256596 0.210210
v 0.794146 1.256596 0.210210
v 0.794146 1.203974 0.262832
v 0.485854 0.808710 0.160002
v 0.794146 0.808710 0.160002
v 0.794146 0.875893 0.160002
v 0.485854 0.875893 0.160002
v 1.386146 0.808710 0.160002
v 1.386146 0.875893 0.160002
v 1.310167 0.808710 0.160002
v 1.310167 0.875893 0.160002
v 1.386146 1.559893 0.160002
v 1.310167 1.559893 0.160002
v -0.485854 0.000011 2.216588
v -0.485854 0.136596 2.216588
v -0.485854 0.000011 0.160002
v -0.485854 0.136596 0.160002
v -0.794146 0.000011 2.216588
v -0.794146 0.136596 2.216588
v -0.794146 0.000011 0.160002
v -0.794146 0.136596 0.160002
v -0.532098 0.036472 2.392406
v -0.532098 0.112289 2.392406
v -0.747902 0.112289 2.392406
v -0.747902 0.036472 2.392406
v -1.386146 0.000011 0.160002
v -1.386146 0.136596 0.160002
v -1.309936 0.136596 0.160002
v -1.309936 0.000011 0.160002
v -0.485854 0.000011 0.262832
v -0.794146 0.000011 0.262832
v -0.485854 1.256596 0.160002
v -0.794146 1.256596 0.160002
v -0.485854 0.136596 0.318248
v -0.485854 0.192013 0.262832
v -0.485854 0.136596 0.207415
v -0.485854 0.081179 0.262832
v -0.794146 0.192013 0.262832
v -0.794146 0.136596 0.318248
v -0.794146 0.081179 0.262832
v -0.794146 0.136596 0.207415
v -0.485854 1.203974 0.262832
v -0.485854 1.256596 0.210210
v -0.794146 1.256596 0.210210
v -0.794146 1.203974 0.262832
v -0.485854 0.808710 0.160002
v -0.794146 0.808710 0.160002
v -0.794146 0.875893 0.160002
v -0.485854 0.875893 0.160002
v -1.386146 0.808710 0.160002
v -1.386146 0.875893 0.160002
v -1.310167 0.808710 0.160002
v -1.310167 0.875893 0.160002
v -1.386146 1.559893 0.160002
v -1.310167 1.559893 0.160002
v 0.485854 0.136596 0.160002
v 0.794146 0.136596 0.160002
v 1.386146 0.136596 0.160002
v 1.386146 0.000011 0.160002
v 1.309936 0.136596 0.160002
v 1.309936 0.000011 0.160002
v 0.485854 0.875893 0.160002
v 0.485854 0.808710 0.160002
v 0.794146 0.808710 0.160002
v 0.794146 0.875893 0.160002
v 1.386146 0.808710 0.160002
v 1.386146 0.875893 0.160002
v 1.310167 0.808710 0.160002
v 1.310167 0.875893 0.160002
v 1.310167 1.635893 0.160002
v 1.386146 1.635893 0.160002
v 1.386146 1.559893 0.160002
v 1.310167 1.559893 0.160002
v -0.485854 0.136596 0.160002
v -0.794146 0.136596 0.160002
v -1.386146 0.136596 0.160002
v -1.386146 0.000011 0.160002
v -1.309936 0.136596 0.160002
v -1.309936 0.000011 0.160002
v -0.485854 0.875893 0.160002
v -0.485854 0.808710 0.160002
v -0.794146 0.808710 0.160002
v -0.794146 0.875893 0.160002
v -1.386146 0.808710 0.160002
v -1.386146 0.875893 0.160002
v -1.310167 0.808710 0.160002
v -1.310167 0.875893 0.160002
v -1.310167 1.635893 0.160002
v -1.386146 1.635893 0.160002
v -1.386146 1.559893 0.160002
v -1.310167 1.559893 0.160002
v 0.485854 0.136596 0.000002
v 0.485854 0.000011 0.000002
v 0.794146 0.000011 0.000002
v 0.794146 0.136596 0.000002
v 1.386146 0.136596 0.000002
v 1.386146 0.000011 0.000002
v 1.309936 0.136596 0.000002
v 1.309936 0.000011 0.000002
v 0.485854 0.875893 0.000002
v 0.485854 0.808710 0.000002
v 0.794146 0.808710 0.000002
v 0.794146 0.875893 0.000002
v 1.386146 0.808710 0.000002
v 1.386146 0.875893 0.000002
v 1.310167 0.808710 0.000002
v 1.310167 0.875893 0.000002
v 1.310167 1.635893 0.000002
v 1.386146 1.635893 0.000002
v 1.386146 1.559893 0.000002
v 1.310167 1.559893 0.000002
v -0.485854 0.136596 0.000002
v -0.485854 0.000011 0.000002
v -0.794146 0.000011 0.000002
v -0.794146 0.136596 0.000002
v -1.386146 0.136596 0.000002
v -1.386146 0.000011 0.000002
v -1.309936 0.136596 0.000002
v -1.309936 0.000011 0.000002
v -0.485854 0.875893 0.000002
v -0.485854 0.808710 0.000002
v -0.794146 0.808710 0.000002
v -0.794146 0.875893 0.000002
v -1.386146 0.808710 0.000002
v -1.386146 0.875893 0.000002
v -1.310167 0.808710 0.000002
v -1.310167 0.875893 0.000002
v -1.310167 1.635893 0.000002
v -1.386146 1.635893 0.000002
v -1.386146 1.559893 0.000002
v -1.310167 1.559893 0.000002
vt 0.625000 0.519236
vt 0.875000 0.519236
vt 0.875000 0.750000
vt 0.625000 0.750000
vt 0.000000 0.000000
vt 0.000000 0.000000
vt 0.000000 0.000000
vt 0.000000 0.000000
vt 0.625000 0.000000
vt 0.375000 0.000000
vt 0.375000 0.000000
vt 0.625000 0.000000
vt 0.125000 0.512500
vt 0.375000 0.512500
vt 0.375000 0.750000
vt 0.125000 0.750000
vt 0.625000 0.512500
vt 0.625000 0.505763
vt 0.625000 0.500000
vt 0.625000 0.500000
vt 0.625000 0.500000
vt 0.625000 0.500000
vt 0.625000 0.506103
vt 0.625000 0.512500
vt 0.375000 0.750000
vt 0.625000 0.750000
vt 0.625000 1.000000
vt 0.375000 1.000000
vt 0.125000 0.750000
vt 0.875000 0.750000
vt 0.000000 0.000000
vt 0.000000 0.000000
vt 0.000000 0.000000
vt 0.000000 0.000000
vt 0.000000 0.000000
vt 0.375000 0.237500
vt 0.523567 0.237500
vt 0.625000 0.244236
vt 0.625000 0.250000
vt 0.375000 0.250000
vt 0.125000 0.500000
vt 0.375000 0.500000
vt 0.523567 0.512500
vt 0.875000 0.512500
vt 0.875000 0.512500
vt 0.625000 0.250000
vt 0.625000 0.250000
vt 0.625000 0.230764
vt 0.625000 0.237500
vt 0.625000 0.237500
vt 0.625000 0.512500
vt 0.875000 0.500000
vt 0.875000 0.506103
vt 0.625000 0.237500
vt 0.625000 0.243897
vt 0.625000 0.250000
vt 0.625000 0.250000
vt 0.625000 0.500000
vt 0.625000 0.500000
vt 0.625000 0.250000
vt 0.000000 0.000000
vt 0.000000 0.000000
vt 0.000000 0.000000
vt 0.000000 0.000000
vt 0.125000 0.500000
vt 0.375000 0.250000
vt 0.375000 0.250000
vt 0.000000 0.000000
vt 0.000000 0.000000
vt 0.000000 0.000000
vt 0.000000 0.000000
vt 0.000000 0.000000
vt 0.000000 0.000000
vt 0.000000 0.000000
vt 0.000000 0.000000
vt 0.000000 0.000000
vt 0.000000 0.000000
vt 0.000000 0.000000
vt 0.000000 0.000000
vt 0.625000 0.519236
vt 0.625000 0.750000
vt 0.875000 0.750000
vt 0.875000 0.519236
vt 0.000000 0.000000
vt 0.000000 0.000000
vt 0.625000 0.000000
vt 0.625000 0.000000
vt 0.375000 0.000000
vt 0.375000 0.000000
vt 0.125000 0.512500
vt 0.125000 0.750000
vt 0.375000 0.750000
vt 0.375000 0.512500
vt 0.625000 0.512500
vt 0.625000 0.512500
vt 0.625000 0.506103
vt 0.625000 0.500000
vt 0.625000 0.500000
vt 0.625000 0.500000
vt 0.625000 0.505763
vt 0.375000 0.750000
vt 0.375000 1.000000
vt 0.625000 1.000000
vt 0.625000 0.750000
vt 0.125000 0.750000
vt 0.875000 0.750000
vt 0.000000 0.000000
vt 0.000000 0.000000
vt 0.000000 0.000000
vt 0.000000 0.000000
vt 0.375000 0.237500
vt 0.375000 0.250000
vt 0.625000 0.250000
vt 0.625000 0.244236
vt 0.523567 0.237500
vt 0.375000 0.500000
vt 0.523567 0.512500
vt 0.875000 0.512500
vt 0.875000 0.512500
vt 0.625000 0.250000
vt 0.625000 0.250000
vt 0.625000 0.230764
vt 0.625000 0.237500
vt 0.625000 0.237500
vt 0.625000 0.512500
vt 0.875000 0.506103
vt 0.875000 0.500000
vt 0.625000 0.243897
vt 0.625000 0.237500
vt 0.625000 0.500000
vt 0.625000 0.250000
vt 0.000000 0.000000
vt 0.000000 0.000000
vt 0.000000 0.000000
vt 0.000000 0.000000
vt 0.000000 0.000000
vt 0.000000 0.000000
vt 0.000000 0.000000
vt 0.000000 0.000000
vt 0.000000 0.000000
vt 0.000000 0.000000
vt 0.000000 0.000000
vt 0.625000 0.500000
vt 0.625000 0.250000
vt 0.000000 0.000000
vt 0.000000 0.000000
vt 0.000000 0.000000
vt 0.000000 0.000000
vt 0.000000 0.000000
vt 0.000000 0.000000
vt 0.000000 0.000000
vt 0.000000 0.000000
vt 0.000000 0.000000
vt 0.000000 0.000000
vt 0.000000 0.000000
vt 0.000000 0.000000
vt 0.000000 0.000000
vt 0.000000 0.000000
vt 0.000000 0.000000
vt 0.000000 0.000000
vt 0.000000 0.000000
vt 0.625000 0.500000
vt 0.625000 0.250000
vt 0.625000 0.250000
vt 0.625000 0.500000
vt 0.000000 0.000000
vt 0.000000 0.000000
vt 0.000000 0.000000
vt 0.000000 0.000000
vt 0.000000 0.000000
vt 0.000000 0.000000
vt 0.375000 0.500000
vt 0.625000 0.500000
vt 0.625000 0.250000
vt 0.000000 0.000000
vt 0.000000 0.000000
vt 0.000000 0.000000
vt 0.000000 0.000000
vt 0.625000 0.500000
vt 0.625000 0.250000
vt 0.625000 0.250000
vt 0.625000 0.500000
vt 0.000000 0.000000
vt 0.000000 0.000000
vt 0.000000 0.000000
vt 0.625000 0.500000
vt 0.625000 0.250000
vt 0.000000 0.000000
vt 0.000000 0.000000
vt 0.000000 0.000000
vt 0.000000 0.000000
vt 0.625000 0.500000
vt 0.625000 0.250000
vt 0.000000 0.000000
vt 0.625000 0.500000
vt 0.625000 0.250000
vt 0.625000 0.250000
vt 0.625000 0.500000
vt 0.000000 0.000000
vt 0.000000 0.000000
vt 0.000000 0.000000
vt 0.000000 0.000000
vt 0.000000 0.000000
vt 0.000000 0.000000
vt 0.000000 0.000000
vt 0.000000 0.000000
vt 0.375000 0.500000
vt 0.375000 0.500000
vt 0.000000 0.000000
vt 0.000000 0.000000
vt 0.000000 0.000000
vt 0.000000 0.000000
vt 0.625000 0.500000
vt 0.375000 0.500000
vt 0.375000 0.500000
vt 0.625000 0.500000
vt 0.625000 0.500000
vt 0.625000 0.500000
vt 0.625000 0.500000
vt 0.625000 0.500000
vt 0.625000 0.500000
vt 0.625000 0.500000
vt 0.625000 0.500000
vt 0.625000 0.500000
vt 0.625000 0.500000
vt 0.625000 0.500000
vt 0.375000 0.500000
vt 0.625000 0.500000
vt 0.625000 0.500000
vt 0.625000 0.500000
vt 0.625000 0.500000
vt 0.625000 0.500000
vt 0.625000 0.500000
vt 0.625000 0.500000
vt 0.625000 0.500000
vt 0.000000 0.000000
vt 0.000000 0.000000
vt 0.000000 0.000000
vt 0.000000 0.000000
vt 0.000000 0.000000
vt 0.000000 0.000000
vt 0.000000 0.000000
vt 0.000000 0.000000
vt 0.000000 0.000000
vt 0.000000 0.000000
vt 0.000000 0.000000
vt 0.000000 0.000000
vt 0.000000 0.000000
vt 0.000000 0.000000
vt 0.000000 0.000000
vt 0.000000 0.000000
vt 0.000000 0.000000
vt 0.000000 0.000000
vt 0.000000 0.000000
vn 0.0000 1.0000 0.0000
vn 0.0000 0.0000 1.0000
vn -0.9671 0.0000 0.2544
vn 0.0000 -1.0000 0.0000
vn 1.0000 0.0000 0.0000
vn 0.0000 -0.9792 0.2031
vn 0.0000 0.9906 0.1370
vn 0.9671 0.0000 0.2544
vn 0.0000 0.0000 -1.0000
vn -1.0000 0.0000 0.0000
vn 0.0000 0.7071 0.7071
vn 1.0000 -0.0003 0.0000
vn -1.0000 -0.0003 0.0000
usemtl Material.002
s off
f 26/1/1 21/2/1 2/3/1 6/4/1
f 14/5/2 37/6/2 95/7/2 87/8/2
f 2/9/3 1/10/3 9/11/3 10/12/3
f 17/13/4 18/14/4 5/15/4 1/16/4
f 25/17/5 28/18/5 8/19/5 34/20/5 35/21/5 20/22/5 31/23/5 32/24/5
f 12/25/2 11/26/2 10/27/2 9/28/2
f 1/16/6 5/15/6 12/25/6 9/29/6
f 6/4/7 2/3/7 10/30/7 11/26/7
f 5/15/8 6/4/8 11/26/8 12/25/8
f 104/31/9 49/32/9 58/33/9 108/34/9 107/35/9
f 17/36/10 24/37/10 23/38/10 4/39/10 3/40/10
f 3/41/4 7/42/4 18/14/4 17/13/4
f 18/14/5 27/43/5 26/1/5 6/4/5 5/15/5
f 22/44/2 25/17/2 32/24/2 29/45/2
f 7/42/5 8/19/5 28/18/5 27/43/5 18/14/5
f 35/21/9 36/46/9 19/47/9 20/22/9
f 1/10/10 2/9/10 21/48/10 24/37/10 17/36/10
f 21/48/10 22/49/10 23/50/10 24/37/10
f 25/17/5 26/51/5 27/43/5 28/18/5
f 21/2/11 26/1/11 25/17/11 22/44/11
f 20/22/1 19/52/1 30/53/1 31/23/1
f 29/45/11 32/24/11 31/23/11 30/53/11
f 4/39/10 23/38/10 22/49/10 29/54/10 30/55/10 19/47/10 36/46/10 33/56/10
f 8/19/9 4/39/9 33/56/9 34/20/9
f 75/57/2 76/58/2 111/59/2 110/60/2
f 80/61/2 83/62/2 119/63/2 114/64/2
f 45/65/4 142/66/4 122/67/4 3/41/4
f 39/68/2 34/69/2 93/70/2 97/71/2
f 82/72/2 77/73/2 112/74/2 116/75/2
f 16/76/2 13/77/2 88/78/2 90/79/2
f 68/80/1 48/81/1 44/82/1 63/83/1
f 38/84/2 37/6/2 95/7/2 96/85/2
f 44/86/8 52/87/8 51/88/8 43/89/8
f 59/90/4 43/91/4 47/92/4 60/93/4
f 67/94/10 74/95/10 73/96/10 62/97/10 77/98/10 76/58/10 50/99/10 70/100/10
f 54/101/2 51/102/2 52/103/2 53/104/2
f 43/91/6 51/105/6 54/101/6 47/92/6
f 48/81/7 53/104/7 52/106/7 44/82/7
f 47/92/3 54/101/3 53/104/3 48/81/3
f 15/107/2 8/108/2 86/109/2 89/110/2
f 89/110/9 87/8/9 88/78/9 90/79/9
f 59/111/5 45/112/5 46/113/5 65/114/5 66/115/5
f 45/65/4 59/90/4 60/93/4 49/116/4
f 60/93/10 47/92/10 48/81/10 68/80/10 69/117/10
f 64/118/2 71/119/2 74/95/2 67/94/2
f 49/116/10 60/93/10 69/117/10 70/100/10 50/99/10
f 77/98/9 62/97/9 61/120/9 78/121/9
f 43/89/5 59/111/5 66/115/5 63/122/5 44/86/5
f 63/122/5 66/115/5 65/123/5 64/124/5
f 67/94/10 70/100/10 69/117/10 68/125/10
f 63/83/11 64/118/11 67/94/11 68/80/11
f 62/97/1 73/96/1 72/126/1 61/127/1
f 71/119/11 72/126/11 73/96/11 74/95/11
f 46/113/5 75/57/5 78/121/5 61/120/5 72/128/5 71/129/5 64/124/5 65/114/5
f 50/99/9 76/58/9 75/57/9 46/113/9
f 36/46/2 35/21/2 94/130/2 91/131/2
f 40/132/2 42/133/2 102/134/2 98/135/2
f 57/136/2 81/137/2 115/138/2 107/35/2
f 13/77/2 14/5/2 87/8/2 88/78/2
f 4/139/2 46/140/2 103/141/2 85/142/2
f 4/39/2 8/19/2 86/143/2 85/144/2
f 101/145/2 100/146/2 99/147/2 102/134/2
f 79/148/2 56/149/2 105/150/2 113/151/2
f 33/152/2 75/153/2 110/154/2 92/155/2
f 88/78/10 87/8/10 125/156/10 126/157/10
f 99/147/1 100/146/1 138/158/1 137/159/1
f 117/160/1 99/147/1 137/159/1 157/161/1
f 104/162/1 103/163/1 141/164/1 144/165/1
f 111/166/4 115/138/4 155/167/4 151/168/4
f 102/134/4 120/169/4 160/170/4 140/171/4
f 3/41/4 122/67/4 123/172/4 7/42/4
f 85/144/1 86/143/1 124/173/1 121/174/1
f 113/151/10 114/64/10 154/175/10 153/176/10
f 97/71/4 93/70/4 131/177/4 135/178/4
f 107/35/9 105/150/9 113/151/9 115/138/9
f 112/179/1 109/180/1 149/181/1 152/182/1
f 96/85/5 95/7/5 133/183/5 134/184/5
f 120/169/5 116/75/5 156/185/5 160/170/5
f 91/131/1 94/130/1 132/186/1 129/187/1
f 119/63/10 118/188/10 158/189/10 159/190/10
f 98/135/10 102/134/10 140/171/10 136/191/10
f 110/60/4 111/59/4 151/192/4 150/193/4
f 100/146/5 101/145/5 139/194/5 138/158/5
f 93/195/4 92/196/4 130/197/4 131/198/4
f 114/64/10 119/63/10 159/190/10 154/175/10
f 119/63/2 120/169/2 117/160/2 118/188/2
f 50/99/2 46/113/2 103/163/2 104/162/2
f 39/68/2 15/107/2 89/110/2 97/71/2
f 56/149/2 55/199/2 106/200/2 105/150/2
f 84/201/2 82/72/2 116/75/2 120/169/2
f 77/98/2 78/121/2 109/180/2 112/179/2
f 50/202/2 57/136/2 107/35/2 104/31/2
f 79/148/2 80/61/2 114/64/2 113/151/2
f 35/203/2 40/132/2 98/135/2 94/204/2
f 55/199/2 58/33/2 108/34/2 106/200/2
f 42/133/2 84/201/2 120/169/2 102/134/2
f 76/205/2 81/137/2 115/138/2 111/166/2
f 41/206/2 38/84/2 96/85/2 101/145/2
f 49/32/1 143/207/1 148/208/1 108/34/1 58/33/1
f 34/20/2 33/56/2 92/196/2 93/195/2
f 78/209/2 36/210/2 91/211/2 109/212/2
f 116/75/2 120/169/2 119/63/2 114/64/2
f 122/67/9 121/174/9 124/173/9 123/172/9
f 127/213/2 128/214/2 126/215/2 125/216/2
f 124/173/2 123/172/2 128/214/2 127/213/2
f 131/198/9 130/197/9 129/187/9 132/186/9
f 135/217/9 136/218/9 134/219/9 133/220/9
f 127/213/2 125/216/2 133/220/2 135/217/2
f 131/198/9 132/186/9 136/218/9 135/217/9
f 139/221/9 140/222/9 137/223/9 138/224/9
f 134/219/9 136/218/9 140/222/9 139/221/9
f 142/66/9 143/207/9 144/165/9 141/164/9
f 147/225/2 145/226/2 146/227/2 148/208/2
f 144/165/2 147/225/2 148/208/2 143/207/2
f 151/192/9 152/182/9 149/181/9 150/193/9
f 155/228/9 153/229/9 154/230/9 156/231/9
f 147/225/2 155/228/2 153/229/2 145/226/2
f 151/192/9 155/228/9 156/231/9 152/182/9
f 159/232/9 158/233/9 157/234/9 160/235/9
f 154/230/9 159/232/9 160/235/9 156/231/9
f 137/223/9 140/222/9 160/235/9 157/234/9
f 129/187/9 130/197/9 150/193/9 149/181/9
f 122/67/2 121/174/2 141/164/2 142/66/2
f 109/212/1 91/211/1 129/236/1 149/237/1
f 87/8/10 95/7/10 133/183/10 125/156/10
f 118/188/1 117/160/1 157/161/1 158/189/1
f 89/110/4 86/109/4 124/238/4 127/239/4
f 105/150/5 106/200/5 146/240/5 145/241/5
f 92/155/4 110/154/4 150/242/4 130/243/4
f 97/71/12 89/110/12 127/239/12 135/178/12
f 113/151/5 105/150/5 145/241/5 153/176/5
f 90/79/1 88/78/1 126/157/1 128/244/1
f 104/31/4 107/35/4 147/245/4 144/246/4
f 85/142/4 103/141/4 141/247/4 121/248/4
f 107/35/13 115/138/13 155/167/13 147/245/13
f 106/200/1 108/34/1 148/249/1 146/240/1
f 86/109/2 8/108/2 7/250/2 90/79/2 89/110/2
f 94/204/1 98/135/1 136/191/1 132/251/1
f 90/79/4 7/42/4 123/172/4 128/244/4
f 116/75/1 112/74/1 152/252/1 156/185/1
f 45/65/4 49/32/4 143/207/4 142/66/4
f 101/145/5 96/85/5 134/184/5 139/194/5
f 3/253/2 4/139/2 46/113/2 45/254/2
f 120/169/2 102/134/2 99/147/2 117/160/2
f 112/74/2 116/75/2 115/138/2 111/166/2
f 116/75/2 114/64/2 113/151/2 115/138/2
f 105/150/9 107/35/9 108/34/9 106/200/9
f 96/85/2 98/135/2 97/71/2 95/7/2
f 94/204/2 93/70/2 97/71/2 98/135/2
f 102/134/2 98/135/2 96/85/2 101/145/2
f 87/8/9 89/110/9 97/71/9 95/7/9
l 7 16
