# Blender v3.0.0 OBJ File: 'Forklift ExtremeLowPoly.blend'
# www.blender.org
mtllib ForkliftLift.mtl
o Lift_Cube.004
v 0.517772 0.152723 0.225089
v 0.517772 3.999989 0.225089
v 0.517772 0.152723 -0.013604
v 0.517772 3.999989 -0.013604
v 0.756465 0.152723 0.225089
v 0.756465 3.999989 0.225089
v 0.756465 0.152723 -0.013604
v 0.756465 3.999989 -0.013604
v 0.517772 4.458755 0.225089
v 0.517772 4.458755 -0.013604
v 0.756465 4.458755 -0.013604
v 0.756465 4.458755 0.225089
v 0.517772 -0.007277 -0.013604
v 0.517772 -0.007277 0.225089
v 0.756465 -0.007277 -0.013604
v 0.756465 -0.007277 0.225089
v -0.517772 0.152723 0.225089
v -0.517772 3.999989 0.225089
v -0.517772 0.152723 -0.013604
v -0.517772 3.999989 -0.013604
v -0.756465 0.152723 0.225089
v -0.756465 3.999989 0.225089
v -0.756465 0.152723 -0.013604
v -0.756465 3.999989 -0.013604
v -0.517772 4.458755 0.225089
v -0.517772 4.458755 -0.013604
v -0.756465 4.458755 -0.013604
v -0.756465 4.458755 0.225089
v -0.517772 -0.007277 -0.013604
v -0.517772 -0.007277 0.225089
v -0.756465 -0.007277 -0.013604
v -0.756465 -0.007277 0.225089
v 0.517772 3.999989 -0.173604
v 0.756465 3.999989 -0.173604
v 0.517772 4.458755 -0.173604
v 0.756465 4.458755 -0.173604
v -0.517772 3.999989 -0.173604
v -0.756465 3.999989 -0.173604
v -0.517772 4.458755 -0.173604
v -0.756465 4.458755 -0.173604
v -0.517772 0.152723 0.189285
v -0.517772 3.999989 0.189285
v -0.517772 0.152723 0.022200
v -0.517772 3.999989 0.022200
v -0.357772 0.152723 0.022200
v -0.357772 0.152723 0.189285
v -0.357772 3.999989 0.189285
v -0.357772 3.999989 0.022200
v 0.517772 0.152723 0.195252
v 0.517772 3.999989 0.195252
v 0.517772 0.152723 0.016232
v 0.517772 3.999989 0.016232
v 0.357772 0.152723 0.016232
v 0.357772 0.152723 0.195252
v 0.357772 3.999989 0.195252
v 0.357772 3.999989 0.016232
v 0.756465 4.390266 -0.013604
v 0.756465 4.390266 0.225089
v -0.756465 4.390266 -0.013604
v -0.756465 4.390266 0.225089
v 0.756465 4.390266 -0.173604
v 0.517772 4.390266 -0.173604
v -0.756465 4.390266 -0.173604
v -0.517772 4.390266 -0.173604
v 0.517772 4.458755 -0.207777
v 0.756465 4.458755 -0.207777
v 0.756465 4.390266 -0.207777
v -0.517772 4.458755 -0.207777
v -0.756465 4.458755 -0.207777
v -0.756465 4.390266 -0.207777
v 0.517772 4.390266 -0.207777
v -0.517772 4.390266 -0.207777
vt 0.375000 0.000000
vt 0.625000 0.000000
vt 0.625000 0.250000
vt 0.375000 0.250000
vt 0.625000 0.500000
vt 0.375000 0.500000
vt 0.625000 0.750000
vt 0.375000 0.750000
vt 0.625000 1.000000
vt 0.375000 1.000000
vt 0.375000 1.000000
vt 0.375000 0.750000
vt 0.625000 0.750000
vt 0.625000 0.500000
vt 0.625000 0.500000
vt 0.625000 0.750000
vt 0.875000 0.500000
vt 0.875000 0.750000
vt 0.625000 0.000000
vt 0.625000 0.250000
vt 0.625000 1.000000
vt 0.625000 0.500000
vt 0.875000 0.500000
vt 0.125000 0.500000
vt 0.375000 0.500000
vt 0.125000 0.750000
vt 0.375000 0.250000
vt 0.375000 0.000000
vt 0.375000 0.000000
vt 0.375000 0.250000
vt 0.625000 0.250000
vt 0.625000 0.000000
vt 0.375000 0.500000
vt 0.625000 0.500000
vt 0.375000 0.750000
vt 0.625000 0.750000
vt 0.375000 1.000000
vt 0.625000 1.000000
vt 0.375000 0.750000
vt 0.375000 1.000000
vt 0.625000 0.750000
vt 0.625000 0.750000
vt 0.625000 0.500000
vt 0.625000 0.500000
vt 0.875000 0.750000
vt 0.875000 0.500000
vt 0.625000 0.250000
vt 0.625000 0.000000
vt 0.625000 1.000000
vt 0.625000 0.250000
vt 0.625000 0.250000
vt 0.125000 0.500000
vt 0.125000 0.750000
vt 0.375000 0.500000
vt 0.375000 0.250000
vt 0.375000 0.000000
vt 0.000000 0.000000
vt 0.000000 0.000000
vt 0.000000 0.000000
vt 0.000000 0.000000
vt 0.000000 0.000000
vt 0.000000 0.000000
vt 0.000000 0.000000
vt 0.000000 0.000000
vt 0.875000 0.500000
vt 0.625000 0.500000
vt 0.000000 0.000000
vt 0.000000 0.000000
vt 0.000000 0.000000
vt 0.000000 0.000000
vt 0.000000 0.000000
vt 0.000000 0.000000
vt 0.000000 0.000000
vt 0.000000 0.000000
vt 0.000000 0.000000
vt 0.000000 0.000000
vt 0.625000 0.250000
vt 0.625000 0.500000
vt 0.625000 0.500000
vt 0.625000 0.250000
vt 0.625000 0.250000
vt 0.625000 0.500000
vt 0.625000 0.500000
vt 0.625000 0.500000
vt 0.375000 0.000000
vt 0.625000 0.000000
vt 0.625000 0.250000
vt 0.375000 0.250000
vt 0.375000 0.000000
vt 0.375000 0.250000
vt 0.625000 0.250000
vt 0.625000 0.000000
vt 0.375000 0.000000
vt 0.375000 0.250000
vt 0.625000 0.250000
vt 0.625000 0.000000
vt 0.375000 0.000000
vt 0.625000 0.000000
vt 0.625000 0.250000
vt 0.375000 0.250000
vt 0.625000 0.500000
vt 0.625000 0.500000
vt 0.625000 0.250000
vt 0.625000 0.250000
vt 0.625000 0.500000
vt 0.625000 0.250000
vt 0.875000 0.500000
vt 0.875000 0.500000
vn -1.0000 0.0000 0.0000
vn 0.0000 0.0000 -1.0000
vn 1.0000 0.0000 0.0000
vn 0.0000 0.0000 1.0000
vn 0.0000 1.0000 0.0000
vn 0.0000 -1.0000 0.0000
usemtl Material.001
s off
f 1/1/1 2/2/1 4/3/1 3/4/1
f 3/4/2 4/3/2 8/5/2 7/6/2
f 7/6/3 8/5/3 6/7/3 5/8/3
f 5/8/4 6/7/4 2/9/4 1/10/4
f 5/8/4 1/10/4 14/11/4 16/12/4
f 58/13/3 57/14/3 11/15/3 12/16/3
f 11/15/5 10/17/5 9/18/5 12/16/5
f 4/3/1 2/2/1 9/19/1 10/20/1
f 2/9/4 6/7/4 58/13/4 12/16/4 9/21/4
f 10/17/5 11/15/5 36/22/5 35/23/5
f 13/24/6 15/25/6 16/12/6 14/26/6
f 3/4/2 7/6/2 15/25/2 13/27/2
f 1/1/1 3/4/1 13/27/1 14/28/1
f 7/6/3 5/8/3 16/12/3 15/25/3
f 17/29/3 19/30/3 20/31/3 18/32/3
f 19/30/2 23/33/2 24/34/2 20/31/2
f 23/33/1 21/35/1 22/36/1 24/34/1
f 21/35/4 17/37/4 18/38/4 22/36/4
f 21/35/4 32/39/4 30/40/4 17/37/4
f 60/41/1 28/42/1 27/43/1 59/44/1
f 27/43/5 28/42/5 25/45/5 26/46/5
f 20/31/3 26/47/3 25/48/3 18/32/3
f 18/38/4 25/49/4 28/42/4 60/41/4 22/36/4
f 4/3/6 20/31/6 37/50/6 33/51/6
f 29/52/6 30/53/6 32/39/6 31/54/6
f 19/30/2 29/55/2 31/54/2 23/33/2
f 17/29/3 30/56/3 29/55/3 19/30/3
f 23/33/1 31/54/1 32/39/1 21/35/1
f 3/4/6 1/1/6 17/29/6 19/30/6
f 29/57/4 13/58/4 3/59/4 19/60/4
f 17/61/2 1/62/2 14/63/2 30/64/2
f 13/58/5 29/57/5 30/64/5 14/63/5
f 2/2/5 4/3/5 20/31/5 18/32/5
f 27/43/5 26/46/5 39/65/5 40/66/5
f 9/67/6 25/68/6 26/69/6 10/70/6
f 18/71/4 2/72/4 9/67/4 25/68/4
f 39/73/5 35/74/5 65/75/5 68/76/5
f 64/77/6 63/78/6 70/79/6 72/80/6
f 64/77/2 62/81/2 33/51/2 37/50/2
f 59/44/1 27/43/1 40/66/1 63/78/1
f 20/31/6 24/34/6 38/82/6 37/50/6
f 26/69/5 10/70/5 35/74/5 39/73/5
f 8/5/6 4/3/6 33/51/6 34/83/6
f 57/14/3 8/5/3 34/83/3 61/84/3
f 41/85/1 42/86/1 44/87/1 43/88/1
f 46/89/3 45/90/3 48/91/3 47/92/3
f 44/87/5 42/86/5 47/92/5 48/91/5
f 41/85/6 43/88/6 45/90/6 46/89/6
f 43/88/2 44/87/2 48/91/2 45/90/2
f 42/86/4 41/85/4 46/89/4 47/92/4
f 49/93/3 51/94/3 52/95/3 50/96/3
f 54/97/1 55/98/1 56/99/1 53/100/1
f 52/95/2 51/94/2 53/100/2 56/99/2
f 49/93/4 50/96/4 55/98/4 54/97/4
f 50/96/5 52/95/5 56/99/5 55/98/5
f 51/94/6 49/93/6 54/97/6 53/100/6
f 11/15/3 57/14/3 61/84/3 36/22/3
f 24/34/1 59/44/1 63/78/1 38/82/1
f 36/22/3 61/84/3 67/101/3 66/102/3
f 38/82/2 63/78/2 64/77/2 37/50/2
f 34/83/2 33/51/2 62/81/2 61/84/2
f 22/36/1 60/41/1 59/44/1 24/34/1
f 6/7/3 8/5/3 57/14/3 58/13/3
f 67/101/2 71/103/2 65/104/2 66/102/2
f 70/79/2 69/105/2 68/106/2 72/80/2
f 68/106/2 65/104/2 71/103/2 72/80/2
f 40/66/5 39/65/5 68/107/5 69/105/5
f 35/23/5 36/22/5 66/102/5 65/108/5
f 61/84/6 62/81/6 71/103/6 67/101/6
f 62/81/6 64/77/6 72/80/6 71/103/6
f 63/78/1 40/66/1 69/105/1 70/79/1
