# Blender v3.0.0 OBJ File: ''
# www.blender.org
mtllib Log.mtl
o Cube
v 9.299999 0.278981 -0.931145
v 8.659651 0.290389 -1.000000
v 9.299999 0.372458 -0.697452
v 8.659651 0.400000 -0.725973
v 9.299999 -0.372458 -0.697452
v 8.659651 -0.400000 -0.725973
v 9.299999 -0.278981 -0.931145
v 8.659651 -0.290389 -1.000000
v 9.299999 0.372458 0.697452
v 8.659651 0.400000 0.725973
v 9.299999 0.278981 0.931145
v 8.659651 0.290389 1.000000
v 9.299999 -0.278981 0.931145
v 8.659651 -0.290389 1.000000
v 9.299999 -0.372458 0.697452
v 8.659651 -0.400000 0.725973
v -9.299999 0.379305 -0.704542
v -8.818833 0.400000 -0.725973
v -8.818833 0.290389 -1.000000
v -9.299999 0.281817 -0.948262
v -9.299999 -0.281817 -0.948262
v -8.818833 -0.290389 -1.000000
v -8.818833 -0.400000 -0.725973
v -9.299999 -0.379305 -0.704542
v -9.299999 0.281817 0.948262
v -8.818833 0.290389 1.000000
v -8.818833 0.400000 0.725973
v -9.299999 0.379305 0.704542
v -9.299999 -0.379305 0.704542
v -8.818833 -0.400000 0.725973
v -8.818833 -0.290389 1.000000
v -9.299999 -0.281817 0.948262
vt 0.409253 0.758607
vt 0.590747 0.758607
vt 0.590747 0.993533
vt 0.409253 0.993533
vt 0.633607 0.534253
vt 0.868533 0.534253
vt 0.868533 0.715747
vt 0.633607 0.715747
vt 0.131467 0.534253
vt 0.366393 0.534253
vt 0.366393 0.715747
vt 0.131467 0.715747
vt 0.409253 0.256467
vt 0.590747 0.256467
vt 0.590747 0.491393
vt 0.409253 0.491393
vt 0.625000 0.758607
vt 0.625000 0.993533
vt 0.366393 0.750000
vt 0.131467 0.750000
vt 0.131467 0.500000
vt 0.366393 0.500000
vt 0.383607 0.537818
vt 0.412818 0.508607
vt 0.587181 0.508607
vt 0.616393 0.537818
vt 0.616393 0.712182
vt 0.587182 0.741393
vt 0.412818 0.741393
vt 0.383607 0.712181
vt 0.375000 0.534253
vt 0.409253 0.500000
vt 0.625000 0.715747
vt 0.590747 0.750000
vt 0.409253 0.750000
vt 0.375000 0.715747
vt 0.590747 0.500000
vt 0.625000 0.534253
vt 0.381467 0.036932
vt 0.411932 0.006467
vt 0.588068 0.006467
vt 0.618533 0.036932
vt 0.618533 0.213068
vt 0.588068 0.243533
vt 0.411932 0.243533
vt 0.381467 0.213068
vt 0.409253 0.250000
vt 0.375000 0.215747
vt 0.590747 0.000000
vt 0.625000 0.034253
vt 0.375000 0.034253
vt 0.409253 0.000000
vt 0.625000 0.215747
vt 0.590747 0.250000
vt 0.625000 0.256467
vt 0.625000 0.491393
vn 0.0000 0.0000 1.0000
vn 0.0000 1.0000 0.0000
vn 0.0000 -1.0000 0.0000
vn 0.0000 0.0000 -1.0000
vn 0.0000 0.9285 0.3714
vn 0.0000 -0.9285 0.3714
vn 0.0000 -0.9285 -0.3714
vn 1.0000 0.0000 0.0000
vn 0.0564 -0.9270 -0.3708
vn 0.0564 0.9270 0.3708
vn 0.0564 -0.9270 0.3708
vn 0.0564 0.9270 -0.3708
vn 0.1069 0.0000 -0.9943
vn 0.0430 -0.9991 0.0000
vn 0.0430 0.9991 0.0000
vn 0.1069 0.0000 0.9943
vn -1.0000 0.0000 0.0000
vn -0.0564 -0.9270 -0.3708
vn -0.0564 0.9270 0.3708
vn -0.0564 -0.9270 0.3708
vn -0.0564 0.9270 -0.3708
vn -0.1069 0.0000 -0.9943
vn -0.0430 0.9991 0.0000
vn -0.0430 -0.9991 0.0000
vn -0.1069 0.0000 0.9943
vn 0.0000 0.9285 -0.3714
usemtl Material
s off
f 14/1/1 12/2/1 26/3/1 31/4/1
f 4/5/2 18/6/2 27/7/2 10/8/2
f 23/9/3 6/10/3 16/11/3 30/12/3
f 22/13/4 19/14/4 2/15/4 8/16/4
f 10/17/5 27/18/5 26/3/5 12/2/5
f 30/12/6 16/11/6 14/19/6 31/20/6
f 6/10/7 23/9/7 22/21/7 8/22/7
f 5/23/8 7/24/8 1/25/8 3/26/8 9/27/8 11/28/8 13/29/8 15/30/8
f 7/24/9 5/23/9 6/31/9 8/32/9
f 11/28/10 9/27/10 10/33/10 12/34/10
f 15/30/11 13/29/11 14/35/11 16/36/11
f 3/26/12 1/25/12 2/37/12 4/38/12
f 1/25/13 7/24/13 8/16/13 2/15/13
f 16/11/14 6/10/14 5/23/14 15/30/14
f 4/5/15 10/8/15 9/27/15 3/26/15
f 12/2/16 14/1/16 13/29/16 11/28/16
f 29/39/17 32/40/17 25/41/17 28/42/17 17/43/17 20/44/17 21/45/17 24/46/17
f 24/46/18 21/45/18 22/47/18 23/48/18
f 28/42/19 25/41/19 26/49/19 27/50/19
f 32/40/20 29/39/20 30/51/20 31/52/20
f 20/44/21 17/43/21 18/53/21 19/54/21
f 21/45/22 20/44/22 19/14/22 22/13/22
f 17/43/23 28/42/23 27/50/23 18/53/23
f 29/39/24 24/46/24 23/48/24 30/51/24
f 25/41/25 32/40/25 31/52/25 26/49/25
f 18/55/26 4/56/26 2/15/26 19/14/26
